<svg width="397" height="78" viewBox="0 0 397 78" fill="none" xmlns="http://www.w3.org/2000/svg">
<g clip-path="url(#clip0_145_181)">
<path d="M66.29 14.21C53.02 14.21 44.76 22.97 44.76 36.25C44.76 49.27 52.76 58.29 66.29 58.29C79.31 58.29 87.56 49.52 87.56 36.25C87.57 22.89 79.4 14.21 66.29 14.21ZM66.29 49.02C59.57 49.02 56.16 44.76 56.16 36.25C56.16 27.74 59.56 23.57 66.29 23.57C73.01 23.57 76.42 27.74 76.42 36.25C76.42 44.76 73.01 49.02 66.29 49.02Z" fill="white"/>
<path d="M102.62 0H91.56V57.19H102.62V0Z" fill="white"/>
<path d="M133.94 40.85C133.94 45.36 130.45 48.68 125.43 48.68C120.75 48.68 118.37 46.04 118.37 40.85V15.32H107.31V42.47C107.31 51.66 113.86 57.62 122.63 57.62C127.82 57.62 132.42 55.41 133.95 51.66V58.47C133.95 64 130.29 67.49 126.29 67.49C120.5 67.49 117.61 64.43 117.61 59.49H107.31C107.31 70.3 113.52 77.02 125.78 77.02C136.5 77.02 145.01 70.13 145.01 58.3V15.32H133.95V40.85H133.94Z" fill="white"/>
<path d="M174.28 14.21H172.83C168.32 14.21 164.06 14.72 160.41 20.34V15.32H150.03V57.19H161.09V35.4C161.09 28.68 164.41 25.27 171.22 25.27C172.24 25.27 173.26 25.35 174.28 25.53V14.21Z" fill="white"/>
<path d="M193.94 14.21C180.49 14.21 175.73 20.25 175.56 28.93H185.86C186.37 25.19 188.41 22.72 193.43 22.72C197.77 22.72 200.49 24.34 200.49 27.06C200.49 29.95 198.96 31.06 193.43 31.83C182.28 33.36 174.2 34.72 174.2 46.81C174.2 53.62 178.62 58.3 188.16 58.3C193.78 58.3 198.2 56.34 200.84 53.45C200.92 54.73 201.18 56.17 201.52 57.19H211.82V30.72C211.81 20.17 207.22 14.21 193.94 14.21ZM200.66 41.27C200.58 46.21 196.32 50.38 190.62 50.38C187.13 50.38 185.26 48.85 185.26 45.7C185.26 42.13 187.3 40.34 193.6 39.15C197.68 38.38 199.64 37.79 200.75 36.68L200.66 41.27Z" fill="white"/>
<path d="M227.55 4H216.66V41.44C216.66 50.46 221.51 58.29 233.76 58.29C245.59 58.29 250.69 50.38 250.69 41.53V29.61H240.39V40.5C240.39 45.69 238.35 48.67 233.92 48.67C229.41 48.67 227.54 45.61 227.54 40.33V23.15H250.69V15.32H227.54V4H227.55Z" fill="white"/>
<path d="M266.53 0H255.47V10.3H266.53V0Z" fill="white"/>
<path d="M266.53 15.32H255.47V57.19H266.53V15.32Z" fill="white"/>
<path d="M295.63 14.21C288.91 14.21 284.65 16.76 282.1 21.44V15.31H271.55V57.18H282.61V33.18C282.61 26.8 285.42 23.56 291.2 23.56C296.48 23.56 298.35 25.35 298.35 31.81V57.17H309.5V28.17C309.5 19.06 303.63 14.21 295.63 14.21Z" fill="white"/>
<path d="M343.54 20.51C340.9 16.26 337.07 14.21 331.8 14.21C321.67 14.21 313.5 22.97 313.5 36C313.5 46.98 318.27 57.53 332.05 57.53C337.5 57.53 342.01 55.32 343.54 51.57V58.46C343.54 63.99 338.86 67.48 332.99 67.48C327.46 67.48 323.8 64.5 323.8 59.48H313.5C313.5 70.29 322.09 77.01 333.75 77.01C345.41 77.01 354.6 70.2 354.6 57.61V15.32H343.54V20.51ZM334.44 48.85C328.99 48.85 324.99 44.08 324.99 36.6C324.99 28.01 328.22 23.84 334.44 23.84C340.74 23.84 343.89 28.18 343.89 37.29C343.88 44.34 339.8 48.85 334.44 48.85Z" fill="white"/>
<path d="M389.58 34.29C386.35 33.01 381.84 32.08 377.07 30.72C372.56 29.44 370.26 28.42 370.26 25.95C370.26 23.48 372.64 22.46 376.81 22.46C381.83 22.46 384.04 23.91 384.64 27.99H395.28C394.68 18.97 389.24 14.2 377.15 14.2C364.39 14.2 359.53 19.56 359.53 26.62C359.53 30.36 360.89 33.6 364.81 36.07C367.79 37.94 371.7 39.13 378.77 40.84C382.34 41.69 385.49 42.63 385.49 45.61C385.49 48.76 382 49.95 378.09 49.95C372.73 49.95 369.41 47.65 369.41 43.74H358.01C358.18 52.25 365.33 58.29 378.18 58.29C390.09 58.29 396.48 53.1 396.48 44.42C396.47 38.98 394.01 36.08 389.58 34.29Z" fill="white"/>
<path d="M24.93 0.68H0V57.18H11.83V36.68H24.93C35.99 36.68 43.06 29.28 43.06 18.98C43.06 8.77 36 0.68 24.93 0.68ZM29.38 27.03C29.56 29.08 29.03 30.84 27.6 32.27C26.56 33.68 25 34.23 23.43 34.71C20.8 35.52 18.05 35.68 15.34 35.93C14.13 36.04 12.95 36.39 11.75 36.52V30.8C11.86 30.72 11.96 30.64 12.08 30.57C14.01 29.39 15.47 27.72 16.28 25.55C16.73 24.36 16.7 23.19 16.21 22.01C15.9 21.26 15.57 21.04 14.78 21.51C13.34 22.36 11.76 22.91 10.06 22.69C9.43 22.61 9.04 22.75 8.59 23.2C7.58 24.24 6.6 24.24 5.5 23.32C3.95 22.04 4.07 19.93 5.89 18.61C7.11 17.72 8.13 16.66 9.16 15.58C10.3 14.39 11.37 13.05 12.82 12.26C14.53 11.33 15.1 9.75 15.72 8.13C15.81 7.89 15.7 7.55 16.1 7.38C16.32 7.73 16.55 8.09 16.79 8.47C17.19 8.04 17.03 7.4 17.51 7.05C17.63 7.19 17.73 7.26 17.79 7.36C18.52 8.52 18.79 10.11 19.63 10.93C20.51 11.78 22.25 11.77 23.5 12.43C26.3 13.91 28.46 16.01 29.85 19.12C28.99 18.64 28.31 18.27 27.63 17.9C29.61 21.36 31.72 24.68 31.73 29.05C30.77 28.34 30.51 27.29 29.38 27.03Z" fill="white"/>
</g>
<defs>
<clipPath id="clip0_145_181">
<rect width="396.47" height="77.01" fill="white"/>
</clipPath>
</defs>
</svg>
